<svg width="239" height="101" viewBox="0 0 239 101" fill="none" xmlns="http://www.w3.org/2000/svg">
<g id="Logo">
<g id="Graphic">
<path id="Vector" d="M49.4911 0.364014H50.5044C63.6303 0.364014 76.2185 5.57825 85.4999 14.8596C94.7813 24.141 99.9955 36.7293 99.9955 49.8551V50.8684C99.9955 63.9943 94.7813 76.5825 85.4999 85.8639C76.2185 95.1453 63.6303 100.36 50.5044 100.36H0V49.8551C0 36.7293 5.21422 24.141 14.4956 14.8596C23.777 5.57825 36.3653 0.364014 49.4911 0.364014Z" fill="url(#paint0_linear_12558:4445)" fill-opacity="0.65"/>
<path id="Vector_2" d="M66.5147 32.8604C65.2155 31.5475 63.4486 30.8035 61.6015 30.7916C60.6756 30.783 59.7574 30.9618 58.9024 31.3173C58.0474 31.6729 57.2731 32.1977 56.6262 32.8604C55.6481 33.8383 54.9819 35.0843 54.7119 36.4409C54.4419 37.7974 54.5803 39.2036 55.1096 40.4815C55.6388 41.7594 56.5351 42.8516 57.6852 43.6201C58.8352 44.3886 60.1873 44.7988 61.5705 44.7988C62.9536 44.7988 64.3057 44.3886 65.4557 43.6201C66.6058 42.8516 67.5021 41.7594 68.0313 40.4815C68.5606 39.2036 68.6989 37.7974 68.429 36.4409C68.159 35.0843 67.4928 33.8383 66.5147 32.8604ZM64.7725 41.0089C64.1375 41.65 63.3263 42.0879 62.4419 42.267C61.5575 42.4462 60.6398 42.3586 59.8053 42.0152C58.9709 41.6719 58.2572 41.0883 57.755 40.3386C57.2528 39.5889 56.9847 38.7069 56.9847 37.8046C56.9847 36.9022 57.2528 36.0202 57.755 35.2705C58.2572 34.5208 58.9709 33.9373 59.8053 33.5939C60.6398 33.2506 61.5575 33.1629 62.4419 33.3421C63.3263 33.5213 64.1375 33.9592 64.7725 34.6003C65.6198 35.4515 66.0955 36.6036 66.0955 37.8046C66.0955 39.0056 65.6198 40.1577 64.7725 41.0089ZM66.5124 32.8604C65.2133 31.5475 63.4463 30.8035 61.5993 30.7916C60.6734 30.783 59.7552 30.9618 58.9002 31.3173C58.0451 31.6729 57.2709 32.1977 56.624 32.8604C55.6458 33.8383 54.9796 35.0843 54.7097 36.4409C54.4397 37.7974 54.5781 39.2036 55.1074 40.4815C55.6366 41.7594 56.5329 42.8516 57.6829 43.6201C58.833 44.3886 60.1851 44.7988 61.5682 44.7988C62.9514 44.7988 64.3035 44.3886 65.4535 43.6201C66.6035 42.8516 67.4999 41.7594 68.0291 40.4815C68.5583 39.2036 68.6967 37.7974 68.4268 36.4409C68.1568 35.0843 67.4906 33.8383 66.5124 32.8604ZM64.7725 41.0089C64.1375 41.65 63.3263 42.0879 62.4419 42.267C61.5575 42.4462 60.6398 42.3586 59.8053 42.0152C58.9709 41.6719 58.2572 41.0883 57.755 40.3386C57.2528 39.5889 56.9847 38.7069 56.9847 37.8046C56.9847 36.9022 57.2528 36.0202 57.755 35.2705C58.2572 34.5208 58.9709 33.9373 59.8053 33.5939C60.6398 33.2506 61.5575 33.1629 62.4419 33.3421C63.3263 33.5213 64.1375 33.9592 64.7725 34.6003C65.6198 35.4515 66.0955 36.6036 66.0955 37.8046C66.0955 39.0056 65.6198 40.1577 64.7725 41.0089ZM66.5124 32.8604C65.2133 31.5475 63.4463 30.8035 61.5993 30.7916C60.6734 30.783 59.7552 30.9618 58.9002 31.3173C58.0451 31.6729 57.2709 32.1977 56.624 32.8604C55.6458 33.8383 54.9796 35.0843 54.7097 36.4409C54.4397 37.7974 54.5781 39.2036 55.1074 40.4815C55.6366 41.7594 56.5329 42.8516 57.6829 43.6201C58.833 44.3886 60.1851 44.7988 61.5682 44.7988C62.9514 44.7988 64.3035 44.3886 65.4535 43.6201C66.6035 42.8516 67.4999 41.7594 68.0291 40.4815C68.5583 39.2036 68.6967 37.7974 68.4268 36.4409C68.1568 35.0843 67.4906 33.8383 66.5124 32.8604ZM64.7725 41.0089C64.1375 41.65 63.3263 42.0879 62.4419 42.267C61.5575 42.4462 60.6398 42.3586 59.8053 42.0152C58.9709 41.6719 58.2572 41.0883 57.755 40.3386C57.2528 39.5889 56.9847 38.7069 56.9847 37.8046C56.9847 36.9022 57.2528 36.0202 57.755 35.2705C58.2572 34.5208 58.9709 33.9373 59.8053 33.5939C60.6398 33.2506 61.5575 33.1629 62.4419 33.3421C63.3263 33.5213 64.1375 33.9592 64.7725 34.6003C65.6198 35.4515 66.0955 36.6036 66.0955 37.8046C66.0955 39.0056 65.6198 40.1577 64.7725 41.0089ZM66.5124 32.8604C65.2133 31.5475 63.4463 30.8035 61.5993 30.7916C60.6734 30.783 59.7552 30.9618 58.9002 31.3173C58.0451 31.6729 57.2709 32.1977 56.624 32.8604C55.6458 33.8383 54.9796 35.0843 54.7097 36.4409C54.4397 37.7974 54.5781 39.2036 55.1074 40.4815C55.6366 41.7594 56.5329 42.8516 57.6829 43.6201C58.833 44.3886 60.1851 44.7988 61.5682 44.7988C62.9514 44.7988 64.3035 44.3886 65.4535 43.6201C66.6035 42.8516 67.4999 41.7594 68.0291 40.4815C68.5583 39.2036 68.6967 37.7974 68.4268 36.4409C68.1568 35.0843 67.4906 33.8383 66.5124 32.8604ZM64.7725 41.0089C64.1375 41.65 63.3263 42.0879 62.4419 42.267C61.5575 42.4462 60.6398 42.3586 59.8053 42.0152C58.9709 41.6719 58.2572 41.0883 57.755 40.3386C57.2528 39.5889 56.9847 38.7069 56.9847 37.8046C56.9847 36.9022 57.2528 36.0202 57.755 35.2705C58.2572 34.5208 58.9709 33.9373 59.8053 33.5939C60.6398 33.2506 61.5575 33.1629 62.4419 33.3421C63.3263 33.5213 64.1375 33.9592 64.7725 34.6003C65.6198 35.4515 66.0955 36.6036 66.0955 37.8046C66.0955 39.0056 65.6198 40.1577 64.7725 41.0089ZM66.5124 32.8604C65.2133 31.5475 63.4463 30.8035 61.5993 30.7916C60.6734 30.783 59.7552 30.9618 58.9002 31.3173C58.0451 31.6729 57.2709 32.1977 56.624 32.8604C55.6458 33.8383 54.9796 35.0843 54.7097 36.4409C54.4397 37.7974 54.5781 39.2036 55.1074 40.4815C55.6366 41.7594 56.5329 42.8516 57.6829 43.6201C58.833 44.3886 60.1851 44.7988 61.5682 44.7988C62.9514 44.7988 64.3035 44.3886 65.4535 43.6201C66.6035 42.8516 67.4999 41.7594 68.0291 40.4815C68.5583 39.2036 68.6967 37.7974 68.4268 36.4409C68.1568 35.0843 67.4906 33.8383 66.5124 32.8604ZM64.7725 41.0089C64.1375 41.65 63.3263 42.0879 62.4419 42.267C61.5575 42.4462 60.6398 42.3586 59.8053 42.0152C58.9709 41.6719 58.2572 41.0883 57.755 40.3386C57.2528 39.5889 56.9847 38.7069 56.9847 37.8046C56.9847 36.9022 57.2528 36.0202 57.755 35.2705C58.2572 34.5208 58.9709 33.9373 59.8053 33.5939C60.6398 33.2506 61.5575 33.1629 62.4419 33.3421C63.3263 33.5213 64.1375 33.9592 64.7725 34.6003C65.6198 35.4515 66.0955 36.6036 66.0955 37.8046C66.0955 39.0056 65.6198 40.1577 64.7725 41.0089ZM66.5124 32.8604C65.2133 31.5475 63.4463 30.8035 61.5993 30.7916C60.6734 30.783 59.7552 30.9618 58.9002 31.3173C58.0451 31.6729 57.2709 32.1977 56.624 32.8604C55.6458 33.8383 54.9796 35.0843 54.7097 36.4409C54.4397 37.7974 54.5781 39.2036 55.1074 40.4815C55.6366 41.7594 56.5329 42.8516 57.6829 43.6201C58.833 44.3886 60.1851 44.7988 61.5682 44.7988C62.9514 44.7988 64.3035 44.3886 65.4535 43.6201C66.6035 42.8516 67.4999 41.7594 68.0291 40.4815C68.5583 39.2036 68.6967 37.7974 68.4268 36.4409C68.1568 35.0843 67.4906 33.8383 66.5124 32.8604ZM64.7725 41.0089C64.1375 41.65 63.3263 42.0879 62.4419 42.267C61.5575 42.4462 60.6398 42.3586 59.8053 42.0152C58.9709 41.6719 58.2572 41.0883 57.755 40.3386C57.2528 39.5889 56.9847 38.7069 56.9847 37.8046C56.9847 36.9022 57.2528 36.0202 57.755 35.2705C58.2572 34.5208 58.9709 33.9373 59.8053 33.5939C60.6398 33.2506 61.5575 33.1629 62.4419 33.3421C63.3263 33.5213 64.1375 33.9592 64.7725 34.6003C65.6198 35.4515 66.0955 36.6036 66.0955 37.8046C66.0955 39.0056 65.6198 40.1577 64.7725 41.0089ZM66.5124 32.8604C65.2133 31.5475 63.4463 30.8035 61.5993 30.7916C60.6734 30.783 59.7552 30.9618 58.9002 31.3173C58.0451 31.6729 57.2709 32.1977 56.624 32.8604C55.6458 33.8383 54.9796 35.0843 54.7097 36.4409C54.4397 37.7974 54.5781 39.2036 55.1074 40.4815C55.6366 41.7594 56.5329 42.8516 57.6829 43.6201C58.833 44.3886 60.1851 44.7988 61.5682 44.7988C62.9514 44.7988 64.3035 44.3886 65.4535 43.6201C66.6035 42.8516 67.4999 41.7594 68.0291 40.4815C68.5583 39.2036 68.6967 37.7974 68.4268 36.4409C68.1568 35.0843 67.4906 33.8383 66.5124 32.8604ZM64.7725 41.0089C64.1375 41.65 63.3263 42.0879 62.4419 42.267C61.5575 42.4462 60.6398 42.3586 59.8053 42.0152C58.9709 41.6719 58.2572 41.0883 57.755 40.3386C57.2528 39.5889 56.9847 38.7069 56.9847 37.8046C56.9847 36.9022 57.2528 36.0202 57.755 35.2705C58.2572 34.5208 58.9709 33.9373 59.8053 33.5939C60.6398 33.2506 61.5575 33.1629 62.4419 33.3421C63.3263 33.5213 64.1375 33.9592 64.7725 34.6003C65.6198 35.4515 66.0955 36.6036 66.0955 37.8046C66.0955 39.0056 65.6198 40.1577 64.7725 41.0089ZM66.5124 32.8604C65.2133 31.5475 63.4463 30.8035 61.5993 30.7916C60.6734 30.783 59.7552 30.9618 58.9002 31.3173C58.0451 31.6729 57.2709 32.1977 56.624 32.8604C55.6458 33.8383 54.9796 35.0843 54.7097 36.4409C54.4397 37.7974 54.5781 39.2036 55.1074 40.4815C55.6366 41.7594 56.5329 42.8516 57.6829 43.6201C58.833 44.3886 60.1851 44.7988 61.5682 44.7988C62.9514 44.7988 64.3035 44.3886 65.4535 43.6201C66.6035 42.8516 67.4999 41.7594 68.0291 40.4815C68.5583 39.2036 68.6967 37.7974 68.4268 36.4409C68.1568 35.0843 67.4906 33.8383 66.5124 32.8604ZM64.7725 41.0089C64.1375 41.65 63.3263 42.0879 62.4419 42.267C61.5575 42.4462 60.6398 42.3586 59.8053 42.0152C58.9709 41.6719 58.2572 41.0883 57.755 40.3386C57.2528 39.5889 56.9847 38.7069 56.9847 37.8046C56.9847 36.9022 57.2528 36.0202 57.755 35.2705C58.2572 34.5208 58.9709 33.9373 59.8053 33.5939C60.6398 33.2506 61.5575 33.1629 62.4419 33.3421C63.3263 33.5213 64.1375 33.9592 64.7725 34.6003C65.6198 35.4515 66.0955 36.6036 66.0955 37.8046C66.0955 39.0056 65.6198 40.1577 64.7725 41.0089ZM66.5124 32.8604C65.2133 31.5475 63.4463 30.8035 61.5993 30.7916C60.6734 30.783 59.7552 30.9618 58.9002 31.3173C58.0451 31.6729 57.2709 32.1977 56.624 32.8604C55.6458 33.8383 54.9796 35.0843 54.7097 36.4409C54.4397 37.7974 54.5781 39.2036 55.1074 40.4815C55.6366 41.7594 56.5329 42.8516 57.6829 43.6201C58.833 44.3886 60.1851 44.7988 61.5682 44.7988C62.9514 44.7988 64.3035 44.3886 65.4535 43.6201C66.6035 42.8516 67.4999 41.7594 68.0291 40.4815C68.5583 39.2036 68.6967 37.7974 68.4268 36.4409C68.1568 35.0843 67.4906 33.8383 66.5124 32.8604ZM64.7725 41.0089C64.1375 41.65 63.3263 42.0879 62.4419 42.267C61.5575 42.4462 60.6398 42.3586 59.8053 42.0152C58.9709 41.6719 58.2572 41.0883 57.755 40.3386C57.2528 39.5889 56.9847 38.7069 56.9847 37.8046C56.9847 36.9022 57.2528 36.0202 57.755 35.2705C58.2572 34.5208 58.9709 33.9373 59.8053 33.5939C60.6398 33.2506 61.5575 33.1629 62.4419 33.3421C63.3263 33.5213 64.1375 33.9592 64.7725 34.6003C65.6198 35.4515 66.0955 36.6036 66.0955 37.8046C66.0955 39.0056 65.6198 40.1577 64.7725 41.0089ZM66.5124 32.8604C65.2133 31.5475 63.4463 30.8035 61.5993 30.7916C60.6734 30.783 59.7552 30.9618 58.9002 31.3173C58.0451 31.6729 57.2709 32.1977 56.624 32.8604C55.6458 33.8383 54.9796 35.0843 54.7097 36.4409C54.4397 37.7974 54.5781 39.2036 55.1074 40.4815C55.6366 41.7594 56.5329 42.8516 57.6829 43.6201C58.833 44.3886 60.1851 44.7988 61.5682 44.7988C62.9514 44.7988 64.3035 44.3886 65.4535 43.6201C66.6035 42.8516 67.4999 41.7594 68.0291 40.4815C68.5583 39.2036 68.6967 37.7974 68.4268 36.4409C68.1568 35.0843 67.4906 33.8383 66.5124 32.8604ZM64.7725 41.0089C64.1375 41.65 63.3263 42.0879 62.4419 42.267C61.5575 42.4462 60.6398 42.3586 59.8053 42.0152C58.9709 41.6719 58.2572 41.0883 57.755 40.3386C57.2528 39.5889 56.9847 38.7069 56.9847 37.8046C56.9847 36.9022 57.2528 36.0202 57.755 35.2705C58.2572 34.5208 58.9709 33.9373 59.8053 33.5939C60.6398 33.2506 61.5575 33.1629 62.4419 33.3421C63.3263 33.5213 64.1375 33.9592 64.7725 34.6003C65.6198 35.4515 66.0955 36.6036 66.0955 37.8046C66.0955 39.0056 65.6198 40.1577 64.7725 41.0089ZM66.5124 32.8604C65.2133 31.5475 63.4463 30.8035 61.5993 30.7916C60.6734 30.783 59.7552 30.9618 58.9002 31.3173C58.0451 31.6729 57.2709 32.1977 56.624 32.8604C55.6458 33.8383 54.9796 35.0843 54.7097 36.4409C54.4397 37.7974 54.5781 39.2036 55.1074 40.4815C55.6366 41.7594 56.5329 42.8516 57.6829 43.6201C58.833 44.3886 60.1851 44.7988 61.5682 44.7988C62.9514 44.7988 64.3035 44.3886 65.4535 43.6201C66.6035 42.8516 67.4999 41.7594 68.0291 40.4815C68.5583 39.2036 68.6967 37.7974 68.4268 36.4409C68.1568 35.0843 67.4906 33.8383 66.5124 32.8604ZM64.7725 41.0089C64.1375 41.65 63.3263 42.0879 62.4419 42.267C61.5575 42.4462 60.6398 42.3586 59.8053 42.0152C58.9709 41.6719 58.2572 41.0883 57.755 40.3386C57.2528 39.5889 56.9847 38.7069 56.9847 37.8046C56.9847 36.9022 57.2528 36.0202 57.755 35.2705C58.2572 34.5208 58.9709 33.9373 59.8053 33.5939C60.6398 33.2506 61.5575 33.1629 62.4419 33.3421C63.3263 33.5213 64.1375 33.9592 64.7725 34.6003C65.6198 35.4515 66.0955 36.6036 66.0955 37.8046C66.0955 39.0056 65.6198 40.1577 64.7725 41.0089ZM66.5124 32.8604C65.2133 31.5475 63.4463 30.8035 61.5993 30.7916C60.6734 30.783 59.7552 30.9618 58.9002 31.3173C58.0451 31.6729 57.2709 32.1977 56.624 32.8604C55.6458 33.8383 54.9796 35.0843 54.7097 36.4409C54.4397 37.7974 54.5781 39.2036 55.1074 40.4815C55.6366 41.7594 56.5329 42.8516 57.6829 43.6201C58.833 44.3886 60.1851 44.7988 61.5682 44.7988C62.9514 44.7988 64.3035 44.3886 65.4535 43.6201C66.6035 42.8516 67.4999 41.7594 68.0291 40.4815C68.5583 39.2036 68.6967 37.7974 68.4268 36.4409C68.1568 35.0843 67.4906 33.8383 66.5124 32.8604ZM64.7725 41.0089C64.1375 41.65 63.3263 42.0879 62.4419 42.267C61.5575 42.4462 60.6398 42.3586 59.8053 42.0152C58.9709 41.6719 58.2572 41.0883 57.755 40.3386C57.2528 39.5889 56.9847 38.7069 56.9847 37.8046C56.9847 36.9022 57.2528 36.0202 57.755 35.2705C58.2572 34.5208 58.9709 33.9373 59.8053 33.5939C60.6398 33.2506 61.5575 33.1629 62.4419 33.3421C63.3263 33.5213 64.1375 33.9592 64.7725 34.6003C65.6198 35.4515 66.0955 36.6036 66.0955 37.8046C66.0955 39.0056 65.6198 40.1577 64.7725 41.0089ZM66.5124 32.8604C65.2133 31.5475 63.4463 30.8035 61.5993 30.7916C60.6734 30.783 59.7552 30.9618 58.9002 31.3173C58.0451 31.6729 57.2709 32.1977 56.624 32.8604C55.6458 33.8383 54.9796 35.0843 54.7097 36.4409C54.4397 37.7974 54.5781 39.2036 55.1074 40.4815C55.6366 41.7594 56.5329 42.8516 57.6829 43.6201C58.833 44.3886 60.1851 44.7988 61.5682 44.7988C62.9514 44.7988 64.3035 44.3886 65.4535 43.6201C66.6035 42.8516 67.4999 41.7594 68.0291 40.4815C68.5583 39.2036 68.6967 37.7974 68.4268 36.4409C68.1568 35.0843 67.4906 33.8383 66.5124 32.8604ZM64.7725 41.0089C64.1375 41.65 63.3263 42.0879 62.4419 42.267C61.5575 42.4462 60.6398 42.3586 59.8053 42.0152C58.9709 41.6719 58.2572 41.0883 57.755 40.3386C57.2528 39.5889 56.9847 38.7069 56.9847 37.8046C56.9847 36.9022 57.2528 36.0202 57.755 35.2705C58.2572 34.5208 58.9709 33.9373 59.8053 33.5939C60.6398 33.2506 61.5575 33.1629 62.4419 33.3421C63.3263 33.5213 64.1375 33.9592 64.7725 34.6003C65.6198 35.4515 66.0955 36.6036 66.0955 37.8046C66.0955 39.0056 65.6198 40.1577 64.7725 41.0089ZM66.5124 32.8604C65.2133 31.5475 63.4463 30.8035 61.5993 30.7916C60.6734 30.783 59.7552 30.9618 58.9002 31.3173C58.0451 31.6729 57.2709 32.1977 56.624 32.8604C55.6458 33.8383 54.9796 35.0843 54.7097 36.4409C54.4397 37.7974 54.5781 39.2036 55.1074 40.4815C55.6366 41.7594 56.5329 42.8516 57.6829 43.6201C58.833 44.3886 60.1851 44.7988 61.5682 44.7988C62.9514 44.7988 64.3035 44.3886 65.4535 43.6201C66.6035 42.8516 67.4999 41.7594 68.0291 40.4815C68.5583 39.2036 68.6967 37.7974 68.4268 36.4409C68.1568 35.0843 67.4906 33.8383 66.5124 32.8604ZM64.7725 41.0089C64.1375 41.65 63.3263 42.0879 62.4419 42.267C61.5575 42.4462 60.6398 42.3586 59.8053 42.0152C58.9709 41.6719 58.2572 41.0883 57.755 40.3386C57.2528 39.5889 56.9847 38.7069 56.9847 37.8046C56.9847 36.9022 57.2528 36.0202 57.755 35.2705C58.2572 34.5208 58.9709 33.9373 59.8053 33.5939C60.6398 33.2506 61.5575 33.1629 62.4419 33.3421C63.3263 33.5213 64.1375 33.9592 64.7725 34.6003C65.6198 35.4515 66.0955 36.6036 66.0955 37.8046C66.0955 39.0056 65.6198 40.1577 64.7725 41.0089ZM66.5124 32.8604C65.2133 31.5475 63.4463 30.8035 61.5993 30.7916C60.6734 30.783 59.7552 30.9618 58.9002 31.3173C58.0451 31.6729 57.2709 32.1977 56.624 32.8604C55.6458 33.8383 54.9796 35.0843 54.7097 36.4409C54.4397 37.7974 54.5781 39.2036 55.1074 40.4815C55.6366 41.7594 56.5329 42.8516 57.6829 43.6201C58.833 44.3886 60.1851 44.7988 61.5682 44.7988C62.9514 44.7988 64.3035 44.3886 65.4535 43.6201C66.6035 42.8516 67.4999 41.7594 68.0291 40.4815C68.5583 39.2036 68.6967 37.7974 68.4268 36.4409C68.1568 35.0843 67.4906 33.8383 66.5124 32.8604ZM64.7725 41.0089C64.1375 41.65 63.3263 42.0879 62.4419 42.267C61.5575 42.4462 60.6398 42.3586 59.8053 42.0152C58.9709 41.6719 58.2572 41.0883 57.755 40.3386C57.2528 39.5889 56.9847 38.7069 56.9847 37.8046C56.9847 36.9022 57.2528 36.0202 57.755 35.2705C58.2572 34.5208 58.9709 33.9373 59.8053 33.5939C60.6398 33.2506 61.5575 33.1629 62.4419 33.3421C63.3263 33.5213 64.1375 33.9592 64.7725 34.6003C65.6198 35.4515 66.0955 36.6036 66.0955 37.8046C66.0955 39.0056 65.6198 40.1577 64.7725 41.0089Z" fill="#231F20"/>
<path id="Vector_3" d="M78.4677 21.1787C78.1756 20.8838 77.8183 20.6618 77.4245 20.5306C77.0308 20.3993 76.6117 20.3625 76.2012 20.4231L73.1546 20.9765C64.5039 22.6348 56.291 26.0691 49.0347 31.0623C41.7784 36.0555 35.6364 42.4991 30.9965 49.9863C30.954 50.0524 30.9161 50.1215 30.8832 50.1929C30.8143 50.3135 30.7563 50.4399 30.7099 50.5707C30.5121 51.1662 30.5454 51.944 30.7987 52.8595C31.2609 54.5772 32.4675 56.7682 34.2452 59.0481C33.7591 58.3078 33.3813 57.502 33.1231 56.6549C32.9691 56.1996 32.9505 55.7094 33.0697 55.2438C33.0983 55.1627 33.1332 55.0839 33.1742 55.0083C33.1826 54.9923 33.1939 54.978 33.2075 54.9661C33.2404 54.9131 33.28 54.8645 33.3253 54.8216C33.7097 54.4394 34.3764 54.3927 35.2185 54.6327C36.8029 55.0772 39.0095 56.5238 41.0916 58.6103C43.1737 60.6969 44.6092 62.8813 45.0581 64.4656C45.307 65.3167 45.2603 65.99 44.8825 66.3744L44.8537 66.3989C44.8176 66.4329 44.779 66.4641 44.7381 66.4922C44.5906 66.5896 44.4239 66.654 44.2492 66.6811C43.8203 66.7363 43.3844 66.6946 42.9738 66.5589C42.1485 66.2942 41.3624 65.9205 40.6361 65.4478C42.876 67.1944 45.0248 68.3966 46.7358 68.881C47.4009 69.0985 48.1059 69.166 48.8001 69.0788C49.0795 69.007 49.3458 68.8915 49.589 68.7365L49.7779 68.6232C57.1916 64.0936 63.5784 58.0667 68.53 50.928C73.4816 43.7892 76.8891 35.6958 78.5344 27.1651L79.2166 23.4963V23.4497C79.2772 23.039 79.241 22.6198 79.111 22.2255C78.981 21.8312 78.7607 21.4728 78.4677 21.1787ZM76.1167 26.7051C73.0613 42.5999 62.6373 57.3104 49.1024 66.1878C48.3735 63.6257 45.7225 59.7858 42.3649 56.4282C39.0072 53.0706 36.1429 51.3173 33.5742 50.5974C42.6271 36.978 57.4998 26.4651 73.6057 23.3986L76.5634 22.8586C76.5937 22.8575 76.624 22.8627 76.6522 22.8738C76.6805 22.8849 76.7062 22.9016 76.7278 22.923C76.7475 22.9446 76.7627 22.9698 76.7726 22.9973C76.7825 23.0247 76.7869 23.0539 76.7856 23.083L76.1167 26.7051Z" fill="#231F20"/>
<path id="Vector_4" d="M68.3396 58.1747C68.294 57.8263 68.1433 57.5001 67.9074 57.2396C67.6715 56.9791 67.3618 56.7968 67.0196 56.717C66.6919 56.6448 66.3502 56.6707 66.0372 56.7917C65.7241 56.9126 65.4537 57.1232 65.2597 57.397C62.5476 60.6065 59.5233 63.5386 56.2312 66.1499L56.2023 66.1766C55.8409 66.3309 55.552 66.6174 55.3946 66.9775C55.2373 67.3376 55.2234 67.7442 55.3557 68.1143L58.5511 76.0762C58.6793 76.4904 58.9215 76.8601 59.25 77.1431C59.5786 77.426 59.9802 77.6107 60.4088 77.6761C60.5328 77.6975 60.6585 77.7079 60.7844 77.7072C61.1769 77.7072 61.5632 77.6097 61.9088 77.4236C62.2544 77.2374 62.5483 76.9683 62.7643 76.6406L64.5997 73.9874C67.793 69.3754 69.1285 63.7285 68.3396 58.1747ZM62.5754 72.5874L60.8243 75.1206L57.9356 67.9365C60.8573 65.6013 63.5771 63.0241 66.0663 60.2324C66.3027 64.6237 65.0749 68.9692 62.5754 72.5874Z" fill="#231F20"/>
<path id="Vector_5" d="M42.9453 32.847C42.8646 32.5051 42.6813 32.196 42.4199 31.9613C42.1586 31.7266 41.8317 31.5774 41.4831 31.5337C35.9275 30.7428 30.278 32.0776 25.6638 35.2713L23.0973 37.049C22.7003 37.2389 22.3686 37.5424 22.1443 37.921C21.92 38.2996 21.8132 38.7362 21.8373 39.1756C21.8704 39.6323 22.0415 40.0682 22.3281 40.4254C22.6146 40.7826 23.003 41.0442 23.4417 41.1755L31.3369 44.3487L31.4058 44.3731C31.5566 44.4217 31.714 44.4465 31.8724 44.4465C32.3109 44.4277 32.7342 44.2809 33.0902 44.0243L33.1924 43.9576L33.4146 43.7354L33.5235 43.6132C35.8967 40.4911 38.7521 37.5468 42.2564 34.6069C42.5305 34.4129 42.7418 34.1428 42.8642 33.83C42.9867 33.5173 43.0148 33.1756 42.9453 32.847ZM31.7636 41.8777L24.615 38.9889L27.0593 37.2912C30.6775 34.7895 35.024 33.5601 39.4165 33.7958C36.6072 36.2328 34.0439 38.9398 31.7636 41.8777Z" fill="#231F20"/>
<path id="Vector_6" fill-rule="evenodd" clip-rule="evenodd" d="M16.0148 89.329C15.9948 89.3979 15.9771 89.4668 15.9593 89.5379C15.8362 90.0249 15.7691 90.5244 15.7593 91.0267C15.7557 92.0794 15.8675 93.1293 16.0926 94.1577C16.1637 94.5176 16.3659 94.9621 16.3682 95.3287C16.3682 95.3287 16.3193 90.9489 23.7412 87.7979C35.5917 82.7626 39.5182 74.9096 38.4272 69.1965C37.9983 70.1076 37.2228 70.8676 36.5162 71.8142C35.254 73.5193 33.569 74.8658 31.6275 75.7207C30.894 76.0446 30.1293 76.2925 29.3454 76.4607C28.5943 76.6184 27.7432 76.7829 26.9899 76.5584C26.9668 76.5545 26.9447 76.5458 26.9252 76.5328C26.9056 76.5198 26.8891 76.5028 26.8766 76.4829C26.8666 76.4518 26.8666 76.4184 26.8766 76.3874C26.9354 76.0622 27.0512 75.75 27.2188 75.4652C27.3047 75.3174 27.4037 75.1776 27.5143 75.0474C27.6232 74.923 27.761 74.8252 27.8676 74.7007C27.7765 74.7252 27.681 74.7163 27.5899 74.7363C27.4565 74.763 27.3232 74.7941 27.1921 74.8274C26.7965 74.9273 26.4076 75.052 26.0277 75.2007C25.0634 75.5675 24.1673 76.0932 23.3767 76.7562C22.0859 77.8593 20.883 79.0614 19.7791 80.3516C19.7791 80.3516 21.6968 69.8676 26.5366 65.3901C27.9474 64.04 29.5685 62.9284 31.3364 62.0991C23.2167 60.8191 14.4482 73.6541 10.7951 83.5092C6.05529 96.3153 0 100.364 0 100.364C1.2955 99.7552 2.46655 98.8263 3.60206 97.9664C5.17977 96.7709 6.71303 95.522 8.23296 94.2443C9.55587 93.1333 10.8617 92.0044 12.1506 90.8578C12.5372 90.5134 12.9239 90.1689 13.2994 89.8134C13.9548 89.1647 14.7509 88.6757 15.626 88.3846C15.9022 88.2952 16.1843 88.2254 16.4704 88.1757C16.3882 88.1913 16.2259 88.7179 16.1926 88.8024C16.1259 88.9712 16.066 89.149 16.0148 89.329Z" fill="#231F20"/>
</g>
<g id="Text">
<path id="Vector_7" d="M140.082 18.1255V22.3475H132.716V44.791H127.383V22.3475H120.05V18.1255H140.082Z" fill="#333333"/>
<path id="Vector_8" d="M162.522 35.3514H147.189C147.265 37.215 147.768 38.5875 148.7 39.469C149.163 39.9089 149.709 40.2531 150.305 40.4819C150.901 40.7107 151.537 40.8195 152.175 40.8022C153.408 40.8022 154.434 40.5 155.253 39.8956C156.063 39.305 156.622 38.4332 156.822 37.4513H162.451C162.185 38.8855 161.575 40.2338 160.673 41.38C159.745 42.5561 158.546 43.4894 157.177 44.0999C155.562 44.7982 153.811 45.1315 152.052 45.0762C150.292 45.0209 148.567 44.5783 146.998 43.7799C145.427 42.9276 144.14 41.6336 143.296 40.0578C142.407 38.4475 141.966 36.5461 141.974 34.3536C141.981 32.1611 142.422 30.2538 143.296 28.6317C144.128 27.0439 145.415 25.7403 146.991 24.8874C148.668 24.0097 150.539 23.568 152.431 23.603C154.495 23.603 156.301 24.0311 157.851 24.8874C159.357 25.7023 160.601 26.9273 161.44 28.4206C162.596 30.5344 162.977 32.9861 162.517 35.3514H162.522ZM156.004 29.1294C155.031 28.2417 153.752 27.764 152.435 27.7962C151.101 27.7624 149.804 28.2393 148.809 29.1294C147.827 30.0183 147.285 31.3153 147.185 33.0204H157.346C157.422 31.3019 156.975 30.0012 156.004 29.1183V29.1294Z" fill="#333333"/>
<path id="Vector_9" d="M179.212 24.8496C180.447 25.6502 181.388 26.83 181.894 28.2117V23.8786H187.183V44.8065H181.894V40.4134C181.386 41.799 180.445 42.9846 179.212 43.7955C177.954 44.6369 176.443 45.0584 174.679 45.0599C173.004 45.0842 171.355 44.6393 169.919 43.7755C168.478 42.8852 167.329 41.5919 166.615 40.0556C165.821 38.4261 165.424 36.518 165.424 34.3314C165.424 32.1449 165.821 30.2376 166.615 28.6095C167.33 27.0733 168.479 25.7796 169.919 24.8874C171.355 24.0246 173.004 23.5798 174.679 23.603C176.446 23.603 177.957 24.0186 179.212 24.8496ZM172.341 29.8783C171.334 30.9627 170.83 32.4486 170.83 34.3359C170.83 36.2232 171.334 37.7046 172.341 38.7801C173.35 39.8497 174.683 40.3845 176.341 40.3845C177.084 40.4073 177.823 40.2727 178.51 39.9897C179.197 39.7067 179.816 39.2816 180.328 38.7424C181.372 37.6461 181.891 36.1788 181.883 34.3403C181.883 32.4782 181.365 30.9968 180.328 29.8961C179.817 29.3566 179.197 28.9312 178.51 28.6478C177.823 28.3644 177.084 28.2294 176.341 28.2517C174.682 28.2502 173.349 28.7924 172.341 29.8783Z" fill="#333333"/>
<path id="Vector_10" d="M224.681 25.9274C226.155 27.5007 226.892 29.7354 226.89 32.6316V44.7955H221.601V33.2404C221.601 31.6301 221.193 30.3902 220.375 29.5206C219.557 28.651 218.428 28.2147 216.988 28.2118C215.507 28.2118 214.322 28.6777 213.433 29.6095C212.544 30.5413 212.1 31.9012 212.1 33.6893V44.7999H206.811V33.2449C206.811 31.6346 206.402 30.3946 205.584 29.525C204.767 28.6554 203.639 28.2207 202.202 28.2207C200.721 28.2207 199.536 28.6866 198.647 29.6184C197.758 30.5502 197.314 31.9101 197.314 33.6982V44.8088H191.98V23.8786H197.314V27.834C197.824 26.5262 198.746 25.4197 199.94 24.6808C201.198 23.9225 202.645 23.5371 204.113 23.5697C205.676 23.5241 207.217 23.9407 208.544 24.7675C209.818 25.6075 210.801 26.8216 211.357 28.2429C211.985 26.8374 213.009 25.6457 214.304 24.8136C215.599 23.9816 217.109 23.5454 218.648 23.5586C221.198 23.5631 223.209 24.3527 224.681 25.9274Z" fill="#333333"/>
<path id="Vector_11" d="M139.251 79.0405C138.525 80.2271 137.477 81.1834 136.229 81.7981C134.896 82.4885 133.272 82.8343 131.356 82.8358C129.621 82.8661 127.898 82.5386 126.294 81.8737C124.876 81.285 123.643 80.3255 122.723 79.096C121.821 77.8635 121.291 76.3984 121.194 74.874H126.861C126.959 75.9012 127.42 76.8596 128.163 77.5761C128.904 78.2946 129.893 78.6531 131.13 78.6516C132.236 78.6516 133.086 78.3553 133.678 77.7627C133.974 77.4617 134.205 77.1039 134.358 76.7108C134.51 76.3177 134.582 75.8976 134.567 75.4762C134.595 74.7244 134.339 73.9898 133.849 73.4185C133.346 72.8586 132.727 72.4137 132.036 72.1141C131.306 71.7882 130.298 71.4104 129.014 70.9808C127.616 70.534 126.252 69.9852 124.934 69.3387C123.857 68.7802 122.93 67.9699 122.232 66.9765C121.491 65.9395 121.121 64.5922 121.121 62.9345C121.121 60.6442 121.946 58.8377 123.594 57.5147C125.243 56.1918 127.428 55.5304 130.15 55.5304C132.964 55.5304 135.212 56.2104 136.892 57.5703C138.571 58.9302 139.523 60.7435 139.745 63.0101H134.003C133.88 62.1089 133.453 61.2765 132.794 60.6502C132.139 60.0324 131.245 59.7236 130.112 59.7236C129.13 59.7236 128.336 59.9821 127.732 60.4991C127.127 61.0161 126.825 61.7649 126.825 62.7456C126.8 63.4599 127.05 64.1565 127.523 64.6922C128.022 65.2317 128.627 65.6621 129.301 65.9566C130.257 66.3741 131.234 66.7398 132.229 67.0521C133.652 67.538 135.045 68.1056 136.403 68.752C137.5 69.3039 138.442 70.1222 139.143 71.1319C139.898 72.1897 140.276 73.5748 140.276 75.2873C140.283 76.6084 139.929 77.9063 139.251 79.0405Z" fill="#333333"/>
<path id="Vector_12" d="M161.462 62.6635C162.904 63.555 164.053 64.8488 164.769 66.3855C165.563 68.0151 165.959 69.9224 165.957 72.1075C165.956 74.2926 165.56 76.2006 164.769 77.8317C164.054 79.3683 162.904 80.6615 161.462 81.5515C160.027 82.4156 158.379 82.8605 156.704 82.8359C154.94 82.8359 153.435 82.4144 152.189 81.5715C150.964 80.7554 150.03 79.571 149.523 78.1894V92.5421H144.189V61.6546H149.523V65.9989C150.028 64.6212 150.963 63.4426 152.189 62.6368C153.435 61.8057 154.94 61.3902 156.704 61.3902C158.378 61.3633 160.026 61.8043 161.462 62.6635ZM151.056 67.6699C150.011 68.7661 149.488 70.2476 149.487 72.1141C149.487 73.9541 150.01 75.4214 151.056 76.5162C151.567 77.0554 152.186 77.4804 152.872 77.7634C153.559 78.0465 154.298 78.181 155.04 78.1583C156.704 78.1583 158.037 77.6235 159.04 76.554C160.043 75.4844 160.546 74.003 160.549 72.1097C160.549 70.2209 160.046 68.735 159.04 67.6521C158.034 66.5692 156.701 66.0278 155.04 66.0278C154.298 66.0052 153.559 66.1398 152.872 66.4229C152.186 66.7059 151.567 67.1308 151.056 67.6699Z" fill="#333333"/>
<path id="Vector_13" d="M182.466 62.6256C183.7 63.4262 184.642 64.606 185.148 65.9877V61.6546H190.436V82.5826H185.148V78.2005C184.639 79.5861 183.699 80.7717 182.466 81.5826C181.208 82.424 179.697 82.8455 177.933 82.847C176.257 82.8713 174.608 82.4264 173.173 81.5626C171.734 80.6676 170.589 79.3705 169.88 77.8316C169.087 76.2021 168.69 74.294 168.688 72.1075C168.687 69.9209 169.084 68.0136 169.88 66.3855C170.595 64.8493 171.743 63.5557 173.184 62.6634C174.62 61.8006 176.268 61.3558 177.944 61.379C179.699 61.379 181.206 61.7946 182.466 62.6256ZM175.59 67.6543C174.585 68.7387 174.081 70.2246 174.079 72.1119C174.078 73.9992 174.582 75.4806 175.59 76.5562C176.599 77.6243 177.932 78.159 179.59 78.1605C180.333 78.1833 181.072 78.0487 181.759 77.7657C182.446 77.4827 183.066 77.0576 183.577 76.5184C184.614 75.4236 185.132 73.9562 185.132 72.1163C185.132 70.2542 184.614 68.7728 183.577 67.6721C183.066 67.1325 182.446 66.7072 181.759 66.4238C181.072 66.1404 180.333 66.0054 179.59 66.0277C177.931 66.0263 176.598 66.5684 175.59 67.6543Z" fill="#333333"/>
<path id="Vector_14" d="M211.433 63.5702C213.233 65.0323 214.36 67.0218 214.813 69.5388H209.184C209 68.5047 208.448 67.5724 207.629 66.9145C206.825 66.2715 205.805 65.95 204.569 65.95C203.902 65.9371 203.239 66.0709 202.629 66.342C202.019 66.6131 201.476 67.0148 201.038 67.5189C200.094 68.5559 199.622 70.0854 199.62 72.1076C199.619 74.1297 200.092 75.66 201.038 76.6984C201.477 77.1997 202.021 77.5987 202.631 77.8674C203.241 78.1362 203.903 78.2681 204.569 78.2539C205.805 78.2539 206.825 77.9332 207.629 77.2918C208.448 76.6334 209.001 75.7002 209.184 74.6652H214.813C214.36 77.1836 213.233 79.1732 211.433 80.6338C209.633 82.0945 207.385 82.8249 204.689 82.8249C202.795 82.8605 200.922 82.4123 199.249 81.5227C197.679 80.6692 196.392 79.3755 195.547 77.8006C194.667 76.1903 194.223 74.2889 194.214 72.0964C194.205 69.9039 194.65 67.9966 195.547 66.3745C196.385 64.7944 197.674 63.4989 199.249 62.6524C200.926 61.7747 202.797 61.333 204.689 61.368C207.378 61.3754 209.626 62.1095 211.433 63.5702Z" fill="#333333"/>
<path id="Vector_15" d="M238.072 73.1275H222.739C222.815 74.9911 223.318 76.3636 224.25 77.2451C224.714 77.6829 225.26 78.025 225.856 78.2519C226.453 78.4787 227.088 78.5859 227.726 78.5672C228.96 78.5672 229.986 78.265 230.806 77.6606C231.61 77.0678 232.165 76.1962 232.361 75.2163H237.99C237.724 76.6504 237.114 77.9985 236.212 79.145C235.285 80.321 234.086 81.2543 232.719 81.8649C231.102 82.563 229.352 82.8964 227.592 82.8411C225.832 82.7857 224.106 82.3432 222.537 81.5449C220.967 80.6913 219.68 79.3977 218.835 77.8228C217.946 76.2125 217.505 74.3111 217.513 72.1186C217.52 69.9261 217.961 68.0188 218.835 66.3967C219.673 64.8166 220.961 63.5211 222.537 62.6746C224.214 61.7969 226.084 61.3552 227.977 61.3902C230.04 61.3902 231.848 61.8183 233.399 62.6746C234.905 63.4895 236.149 64.7146 236.987 66.2078C237.846 67.7725 238.282 69.5341 238.252 71.3187C238.247 71.9258 238.187 72.5312 238.072 73.1275ZM231.557 66.8944C230.58 66.0114 229.302 65.5379 227.986 65.5723C226.653 65.5354 225.356 66.0083 224.359 66.8944C223.377 67.7833 222.836 69.0802 222.735 70.7854H232.897C232.972 69.0728 232.525 67.7759 231.557 66.8944Z" fill="#333333"/>
</g>
</g>
<defs>
<linearGradient id="paint0_linear_12558:4445" x1="49.9978" y1="0.364014" x2="49.9978" y2="100.36" gradientUnits="userSpaceOnUse">
<stop stop-color="#6E44FF"/>
<stop offset="1" stop-color="#72DDF7"/>
</linearGradient>
</defs>
</svg>
