<svg width="18" height="16" viewBox="0 0 18 16" fill="none" xmlns="http://www.w3.org/2000/svg">
<g clip-path="url(#clip0_12594_12485)">
<path d="M15.0005 3.07333C14.6385 2.73267 14.2086 2.46243 13.7355 2.27805C13.2623 2.09368 12.7552 1.99878 12.2431 1.99878C11.7309 1.99878 11.2238 2.09368 10.7506 2.27805C10.2775 2.46243 9.84764 2.73267 9.48559 3.07333L8.73419 3.78L7.9828 3.07333C7.25147 2.38553 6.25958 1.99914 5.22533 1.99914C4.19108 1.99914 3.19919 2.38553 2.46786 3.07333C1.73654 3.76112 1.32568 4.69397 1.32568 5.66666C1.32568 6.63935 1.73654 7.5722 2.46786 8.26L3.21926 8.96666L8.73419 14.1533L14.2491 8.96666L15.0005 8.26C15.3627 7.91949 15.6501 7.51521 15.8461 7.07023C16.0422 6.62526 16.1431 6.14832 16.1431 5.66666C16.1431 5.185 16.0422 4.70807 15.8461 4.26309C15.6501 3.81812 15.3627 3.41383 15.0005 3.07333V3.07333Z" stroke="#fff" stroke-width="2" stroke-linecap="round" stroke-linejoin="round"/>
</g>
<defs>
<clipPath id="clip0_12594_12485">
<rect width="17.0127" height="16" fill="white" transform="translate(0.227783)"/>
</clipPath>
</defs>
</svg>
