<svg width="116" height="94" viewBox="0 0 116 94" fill="none" xmlns="http://www.w3.org/2000/svg">
<path d="M114.877 27.2998L113.417 26.7942C113.276 26.7453 113.164 26.6298 113.116 26.4852L112.623 24.9885C112.492 24.5923 112.13 24.3259 111.722 24.3259C111.315 24.3259 110.953 24.5921 110.822 24.9884L110.329 26.485C110.281 26.6297 110.169 26.7452 110.028 26.7941L108.568 27.2997C108.181 27.4336 107.922 27.8046 107.922 28.223C107.922 28.6412 108.181 29.0122 108.568 29.1461L110.028 29.6517C110.169 29.7006 110.281 29.8162 110.329 29.9608L110.822 31.4574C110.953 31.8537 111.315 32.12 111.722 32.12C112.13 32.12 112.492 31.8538 112.623 31.4575L113.116 29.9608C113.164 29.8162 113.276 29.7006 113.417 29.6518L114.877 29.1462C115.263 29.0123 115.523 28.6413 115.523 28.2231C115.523 27.8046 115.263 27.4336 114.877 27.2998ZM111.722 29.2269C111.52 28.7879 111.171 28.4304 110.743 28.223C111.171 28.0156 111.52 27.658 111.722 27.219C111.925 27.658 112.273 28.0155 112.702 28.223C112.273 28.4304 111.925 28.7879 111.722 29.2269Z" fill="#6A7889"/>
<path d="M50.7535 23.2998L49.2938 22.7942C49.1528 22.7453 49.0401 22.6298 48.9925 22.4852L48.4993 20.9885C48.3687 20.5923 48.0069 20.3259 47.599 20.3259C47.1911 20.3259 46.8292 20.5921 46.6986 20.9884L46.2055 22.485C46.1578 22.6297 46.0451 22.7452 45.904 22.7941L44.4444 23.2997C44.0578 23.4336 43.7982 23.8046 43.7982 24.223C43.7982 24.6412 44.0578 25.0122 44.4443 25.1461L45.904 25.6517C46.0451 25.7006 46.1578 25.8162 46.2055 25.9608L46.6986 27.4574C46.8292 27.8537 47.1911 28.12 47.599 28.12C48.0069 28.12 48.3687 27.8538 48.4993 27.4575L48.9925 25.9608C49.0401 25.8162 49.1528 25.7006 49.2938 25.6518L50.7535 25.1462C51.14 25.0123 51.3998 24.6413 51.3998 24.2231C51.3997 23.8046 51.1399 23.4336 50.7535 23.2998ZM47.5989 25.2269C47.3966 24.7879 47.0479 24.4304 46.6197 24.223C47.0479 24.0156 47.3965 23.658 47.5989 23.219C47.8012 23.658 48.1498 24.0155 48.578 24.223C48.1499 24.4304 47.8012 24.7879 47.5989 25.2269Z" fill="#6A7889"/>
<path d="M8.45536 13.648C10.2269 13.2432 11.347 11.4361 10.9522 9.61969C10.5574 7.80325 8.795 6.65481 7.02341 7.0596C5.25183 7.46439 4.13174 9.27145 4.52654 11.0879C4.92133 12.9043 6.68377 14.0528 8.45536 13.648ZM7.4709 9.11847C8.13525 8.96667 8.79616 9.39733 8.94421 10.0785C9.09226 10.7597 8.67223 11.4373 8.00788 11.5891C7.34352 11.7409 6.68262 11.3103 6.53457 10.6291C6.38652 9.9479 6.80664 9.27024 7.4709 9.11847Z" fill="#6A7889"/>
<path d="M87.2084 7.64798C88.98 7.24319 90.1001 5.43613 89.7053 3.61969C89.3105 1.80325 87.5481 0.654814 85.7765 1.0596C84.0049 1.46439 82.8848 3.27145 83.2796 5.08789C83.6744 6.90433 85.4368 8.05277 87.2084 7.64798ZM86.2239 3.11847C86.8883 2.96667 87.5492 3.39733 87.6973 4.0785C87.8453 4.75968 87.4253 5.43731 86.7609 5.58911C86.0966 5.74091 85.4357 5.31025 85.2876 4.62908C85.1396 3.9479 85.5597 3.27024 86.2239 3.11847Z" fill="#6A7889"/>
<path d="M37.3635 68.1529C39.4065 67.1825 41.4407 66.4746 43.4389 66.041C44.0153 65.916 44.3836 65.3356 44.2617 64.7446C44.1398 64.1537 43.5743 63.7759 42.9972 63.901C40.6842 64.4028 38.3351 65.2421 35.9857 66.4019C34.6733 64.797 33.1709 63.119 31.55 61.457C29.8275 59.6911 28.0871 58.0611 26.4338 56.6579C27.8645 54.803 29.0322 52.7262 29.9157 50.4532C31.2932 46.9094 31.9917 42.8605 31.9917 38.4188C31.9917 37.8147 31.514 37.3251 30.925 37.3251C30.3359 37.3251 29.8582 37.8147 29.8582 38.4188C29.8582 45.2626 28.1467 50.9267 24.7669 55.2976C24.1291 54.7987 23.5107 54.3402 22.9201 53.9319C19.7586 51.7456 17.8756 51.2332 16.8231 52.2736C16.8157 52.2807 16.8079 52.2877 16.8006 52.295C16.7996 52.2961 16.7985 52.2971 16.7974 52.2981C16.7968 52.2987 16.7963 52.2995 16.7956 52.3C16.5261 52.5771 16.3596 52.9121 16.2966 53.3119L0.551777 91.8085C0.384299 92.218 0.474972 92.6908 0.781234 93.0048C0.985409 93.2141 1.25828 93.3252 1.53585 93.3252C1.67474 93.3252 1.81491 93.2974 1.94815 93.2401C1.95113 93.2388 1.94815 93.2401 1.95113 93.2388L39.4942 77.0963C39.8502 77.0373 40.1526 76.8881 40.4083 76.6522C40.4269 76.6363 40.4443 76.6195 40.4617 76.6026C40.4685 76.5957 40.4758 76.59 40.4826 76.583C40.4836 76.5819 40.4845 76.5807 40.4854 76.5798C40.4928 76.5723 40.4996 76.5642 40.5067 76.5565C41.5212 75.4773 41.0215 73.5467 38.8892 70.3054C38.4385 69.6202 37.9263 68.899 37.3635 68.1529ZM8.92966 85.5332C8.70703 86.9565 8.21196 87.8921 7.97375 88.2771L3.52767 90.1887L8.04309 79.1486C8.92657 81.4194 9.23283 83.5946 8.92966 85.5332ZM15.494 81.8324C15.0639 84.3463 13.9231 85.558 13.5987 85.8586L10.7877 87.0672C11.4126 84.7863 11.5769 81.1656 9.16189 76.4131L12.3587 68.5972C15.6755 75.0449 15.9244 79.3171 15.494 81.8324ZM19.2992 83.4074L16.9999 84.3961C17.219 83.8286 17.4122 83.1822 17.5522 82.4497C18.406 77.9814 17.0122 72.4566 13.4116 66.023L14.5658 63.201C15.4794 64.3281 16.5203 65.9234 16.9419 66.9292C17.1154 67.3434 17.5089 67.5914 17.9224 67.5914C18.0629 67.5914 18.2059 67.5627 18.3431 67.5023C18.8844 67.2637 19.1346 66.6206 18.902 66.0655C18.2765 64.5732 16.6903 62.2512 15.477 60.9732L17.2407 56.661C17.5496 57.2418 17.9322 57.8782 18.3911 58.5758C18.7071 59.0561 19.0533 59.5541 19.4256 60.066C23.0746 65.7432 22.992 71.5542 22.2787 75.4314C21.5201 79.5554 19.8958 82.5747 19.2992 83.4074ZM27.5187 79.8734L22.4545 82.0508C23.1857 80.4062 23.9317 78.2473 24.375 75.837C24.8702 73.1448 25.088 69.6046 24.1717 65.7816C24.677 66.3289 25.1969 66.8774 25.7301 67.4242C27.3258 69.0601 28.9363 70.5781 30.4793 71.9086C30.3263 77.0725 28.0163 79.4256 27.5187 79.8734ZM31.1958 78.2924C31.7668 77.081 32.2711 75.5199 32.496 73.5701C33.1398 74.0741 33.7642 74.5372 34.3601 74.9492C35.0408 75.4199 35.6613 75.8121 36.228 76.1288L31.1958 78.2924ZM34.9478 72.7063C32.6287 71.0216 29.8909 68.5964 27.2388 65.8772C24.5869 63.1581 22.2214 60.351 20.5784 57.9732C18.9895 55.6738 18.5613 54.4997 18.4485 53.9911C18.9446 54.1068 20.0897 54.5458 22.3323 56.1749C22.6649 56.4165 23.0067 56.6747 23.3549 56.9454C23.2801 57.0244 23.2063 57.1041 23.1303 57.1821C22.7137 57.6092 22.7137 58.3018 23.1303 58.729C23.3386 58.9425 23.6116 59.0494 23.8846 59.0494C24.1575 59.0494 24.4306 58.9425 24.6389 58.729C24.7728 58.5916 24.9048 58.4524 25.0353 58.3118C26.6534 59.6833 28.3643 61.2845 30.0414 63.004C31.4835 64.4827 32.8394 65.9868 34.0421 67.4341C33.8494 67.5439 33.6569 67.6554 33.4643 67.7694C32.9541 68.0715 32.7793 68.7404 33.0739 69.2634C33.2715 69.6143 33.63 69.8105 33.9988 69.8105C34.1797 69.8105 34.3632 69.7632 34.5311 69.6638C34.8272 69.4883 35.1236 69.32 35.4198 69.1556C35.8833 69.7591 36.3134 70.3459 36.7018 70.9081C38.2908 73.2075 38.7189 74.3816 38.8317 74.8902C38.3354 74.7744 37.1903 74.3354 34.9478 72.7063Z" fill="#6A7889"/>
<path d="M19.7643 68.8843C19.5224 68.3334 18.891 68.0877 18.3537 68.3357C17.8331 68.5758 17.592 69.1912 17.7975 69.7303C17.959 70.1637 18.3628 70.4336 18.7938 70.4336C18.9108 70.4336 19.0296 70.4137 19.1463 70.3719C19.7023 70.1724 19.9954 69.5484 19.8007 68.9782C19.7906 68.9486 19.7768 68.9129 19.7643 68.8843Z" fill="#6A7889"/>
<path d="M40.3043 54.2452C40.5126 54.4587 40.7856 54.5656 41.0586 54.5656C41.3316 54.5656 41.6045 54.4587 41.8129 54.2452C44.1963 51.8015 48.0578 50.6815 50.8771 50.4482C51.4643 50.3996 51.9019 49.872 51.8545 49.27C51.8071 48.6679 51.2937 48.221 50.7055 48.2678C47.5081 48.5323 43.0968 49.8352 40.3043 52.6984C39.8877 53.1256 39.8877 53.8181 40.3043 54.2452Z" fill="#6A7889"/>
<path d="M54.2958 48.4782C54.2656 48.4699 54.2349 48.4617 54.2039 48.4537C53.6322 48.3076 53.0534 48.6647 52.911 49.2509C52.7687 49.837 53.1167 50.4306 53.6884 50.5765L53.7429 50.5909C53.8355 50.6164 53.9285 50.6287 54.0201 50.6287C54.4909 50.6287 54.9219 50.3066 55.0497 49.8181C55.2024 49.2347 54.865 48.6349 54.2958 48.4782Z" fill="#6A7889"/>
<path d="M48.7391 56.3157C46.9745 56.3157 45.5389 57.7876 45.5389 59.5969C45.5389 61.4062 46.9745 62.8782 48.7391 62.8782C50.5037 62.8782 51.9394 61.4062 51.9394 59.5969C51.9394 57.7876 50.5036 56.3157 48.7391 56.3157ZM48.7391 60.6907C48.1509 60.6907 47.6724 60.2 47.6724 59.5969C47.6724 58.9938 48.1509 58.5032 48.7391 58.5032C49.3273 58.5032 49.8059 58.9938 49.8059 59.5969C49.8059 60.2 49.3273 60.6907 48.7391 60.6907Z" fill="#6A7889"/>
<path d="M21.6446 47.7846C23.4092 47.7846 24.8448 46.3126 24.8448 44.5033C24.8448 42.694 23.4092 41.222 21.6446 41.222C19.88 41.222 18.4443 42.694 18.4443 44.5033C18.4443 46.3126 19.88 47.7846 21.6446 47.7846ZM21.6446 43.4095C22.2328 43.4095 22.7113 43.9002 22.7113 44.5033C22.7113 45.1064 22.2328 45.5971 21.6446 45.5971C21.0564 45.5971 20.5778 45.1064 20.5778 44.5033C20.5778 43.9003 21.0564 43.4095 21.6446 43.4095Z" fill="#6A7889"/>
<path d="M48.3863 69.4885C48.3863 68.8861 47.9071 68.3948 47.3196 68.3948C46.732 68.3948 46.2528 68.8861 46.2528 69.4885C46.2528 70.091 46.732 70.5823 47.3196 70.5823C47.9071 70.5823 48.3863 70.0909 48.3863 69.4885Z" fill="#6A7889"/>
<path d="M36.2249 47.7231C36.8125 47.7231 37.2917 47.2318 37.2917 46.6294C37.2917 46.027 36.8125 45.5356 36.2249 45.5356C35.6374 45.5356 35.1582 46.027 35.1582 46.6294C35.1583 47.2317 35.6375 47.7231 36.2249 47.7231Z" fill="#6A7889"/>
<path d="M50.5193 76.5979C49.9317 76.5979 49.4525 77.0893 49.4525 77.6918C49.4525 78.2942 49.9317 78.7855 50.5193 78.7855C51.1068 78.7855 51.5861 78.2942 51.5861 77.6918C51.5861 77.0893 51.1068 76.5979 50.5193 76.5979Z" fill="#6A7889"/>
<path d="M15.3176 40.6075C15.9051 40.6075 16.3843 40.1162 16.3843 39.5138C16.3843 38.9114 15.9051 38.42 15.3176 38.42C14.73 38.42 14.2508 38.9114 14.2508 39.5138C14.2508 40.1162 14.73 40.6075 15.3176 40.6075Z" fill="#6A7889"/>
<path d="M12.0112 47.3L10.5514 46.7943C10.4104 46.7454 10.2977 46.6299 10.2501 46.4853L9.75691 44.9886C9.62634 44.5924 9.2645 44.326 8.85658 44.326C8.44866 44.326 8.08682 44.5923 7.95625 44.9885L7.46309 46.4851C7.41541 46.6298 7.30265 46.7453 7.16163 46.7942L5.702 47.2998C5.31542 47.4337 5.05577 47.8047 5.05577 48.2231C5.05577 48.6413 5.31542 49.0123 5.7019 49.1462L7.16163 49.6518C7.30265 49.7007 7.41541 49.8163 7.46309 49.9609L7.95625 51.4575C8.08682 51.8538 8.44866 52.1201 8.85658 52.1201C9.2645 52.1201 9.62634 51.8539 9.75691 51.4576L10.2501 49.9609C10.2977 49.8163 10.4104 49.7007 10.5514 49.652L12.0112 49.1463C12.3976 49.0124 12.6574 48.6414 12.6574 48.2232C12.6573 47.8047 12.3975 47.4337 12.0112 47.3ZM8.85647 49.227C8.65422 48.788 8.3055 48.4306 7.87731 48.2231C8.3055 48.0157 8.65411 47.6582 8.85647 47.2191C9.05883 47.6582 9.40744 48.0156 9.83563 48.2231C9.40755 48.4306 9.05883 48.788 8.85647 49.227Z" fill="#6A7889"/>
<path d="M38.5731 55.0656L37.1133 54.5599C36.9723 54.511 36.8597 54.3956 36.812 54.251L36.3188 52.7543C36.1883 52.358 35.8264 52.0917 35.4185 52.0917C35.0106 52.0917 34.6487 52.3579 34.5182 52.7542L34.025 54.2507C33.9773 54.3954 33.8646 54.5109 33.7235 54.5598L32.2639 55.0655C31.8773 55.1993 31.6177 55.5703 31.6177 55.9887C31.6177 56.407 31.8773 56.778 32.2638 56.9118L33.7235 57.4175C33.8646 57.4664 33.9773 57.582 34.025 57.7266L34.5182 59.2231C34.6487 59.6194 35.0106 59.8857 35.4185 59.8857C35.8264 59.8857 36.1883 59.6195 36.3188 59.2233L36.812 57.7266C36.8597 57.582 36.9723 57.4664 37.1133 57.4176L38.5731 56.9119C38.9595 56.7781 39.2193 56.4071 39.2193 55.9888C39.2192 55.5703 38.9594 55.1993 38.5731 55.0656ZM35.4184 56.9927C35.2161 56.5536 34.8674 56.1962 34.4392 55.9887C34.8674 55.7813 35.216 55.4238 35.4184 54.9848C35.6207 55.4238 35.9694 55.7812 36.3975 55.9887C35.9695 56.1962 35.6207 56.5536 35.4184 56.9927Z" fill="#6A7889"/>
<path d="M48.4938 83.175L47.034 82.6693C46.893 82.6204 46.7804 82.5049 46.7327 82.3603L46.2395 80.8636C46.109 80.4674 45.7471 80.201 45.3392 80.201C44.9313 80.201 44.5694 80.4673 44.4389 80.8635L43.9457 82.3601C43.898 82.5048 43.7853 82.6203 43.6443 82.6692L42.1846 83.1748C41.7981 83.3087 41.5384 83.6797 41.5384 84.0981C41.5384 84.5163 41.7981 84.8873 42.1845 85.0212L43.6443 85.5268C43.7853 85.5757 43.898 85.6913 43.9457 85.8359L44.4389 87.3325C44.5694 87.7288 44.9313 87.9951 45.3392 87.9951C45.7471 87.9951 46.109 87.7289 46.2395 87.3326L46.7327 85.8359C46.7804 85.6913 46.893 85.5757 47.034 85.527L48.4938 85.0213C48.8803 84.8874 49.14 84.5164 49.14 84.0982C49.1399 83.6797 48.8802 83.3087 48.4938 83.175ZM45.3391 85.102C45.1368 84.663 44.7881 84.3056 44.3599 84.0981C44.7881 83.8907 45.1367 83.5332 45.3391 83.0941C45.5415 83.5332 45.8901 83.8906 46.3183 84.0981C45.8902 84.3056 45.5415 84.663 45.3391 85.102Z" fill="#6A7889"/>
</svg>
