<svg width="128" height="94" viewBox="0 0 128 94" fill="none" xmlns="http://www.w3.org/2000/svg">
<path d="M86.7516 15.648C88.5232 15.2432 89.6433 13.4361 89.2485 11.6197C88.8537 9.80325 87.0912 8.65481 85.3197 9.0596C83.5481 9.46439 82.428 11.2715 82.8228 13.0879C83.2176 14.9043 84.98 16.0528 86.7516 15.648ZM85.7671 11.1185C86.4315 10.9667 87.0924 11.3973 87.2405 12.0785C87.3885 12.7597 86.9685 13.4373 86.3041 13.5891C85.6398 13.7409 84.9789 13.3103 84.8308 12.6291C84.6828 11.9479 85.1029 11.2702 85.7671 11.1185Z" fill="#6A7889"/>
<path d="M52.9758 33.2998L51.516 32.7942C51.375 32.7453 51.2624 32.6298 51.2147 32.4852L50.7215 30.9885C50.5909 30.5923 50.2291 30.3259 49.8212 30.3259C49.4133 30.3259 49.0514 30.5921 48.9209 30.9884L48.4277 32.485C48.38 32.6297 48.2673 32.7452 48.1262 32.7941L46.6666 33.2997C46.28 33.4336 46.0204 33.8046 46.0204 34.223C46.0204 34.6412 46.28 35.0122 46.6665 35.1461L48.1262 35.6517C48.2673 35.7006 48.38 35.8162 48.4277 35.9608L48.9209 37.4574C49.0514 37.8537 49.4133 38.12 49.8212 38.12C50.2291 38.12 50.5909 37.8538 50.7215 37.4575L51.2147 35.9608C51.2624 35.8162 51.375 35.7006 51.516 35.6518L52.9758 35.1462C53.3622 35.0123 53.622 34.6413 53.622 34.2231C53.6219 33.8046 53.3621 33.4336 52.9758 33.2998ZM49.8211 35.2269C49.6188 34.7879 49.2701 34.4304 48.8419 34.223C49.2701 34.0156 49.6187 33.658 49.8211 33.219C50.0234 33.658 50.3721 34.0155 50.8002 34.223C50.3722 34.4304 50.0234 34.7879 49.8211 35.2269Z" fill="#6A7889"/>
<path d="M29.5684 3.29983L28.1087 2.79419C27.9677 2.7453 27.855 2.6298 27.8073 2.48521L27.3142 0.98852C27.1836 0.592254 26.8218 0.325928 26.4138 0.325928C26.0059 0.325928 25.6441 0.592147 25.5135 0.988413L25.0204 2.48499C24.9727 2.62969 24.8599 2.74519 24.7189 2.79409L23.2593 3.29972C22.8727 3.4336 22.613 3.8046 22.613 4.22296C22.613 4.64121 22.8727 5.01221 23.2592 5.14608L24.7189 5.65172C24.8599 5.70061 24.9727 5.81622 25.0204 5.96082L25.5135 7.4574C25.6441 7.85366 26.0059 8.11999 26.4138 8.11999C26.8218 8.11999 27.1836 7.85377 27.3142 7.45751L27.8073 5.96082C27.855 5.81622 27.9677 5.70062 28.1087 5.65183L29.5684 5.14619C29.9549 5.01232 30.2146 4.64132 30.2146 4.22307C30.2145 3.8046 29.9548 3.4336 29.5684 3.29983ZM26.4137 5.22691C26.2115 4.78788 25.8628 4.43044 25.4346 4.22296C25.8628 4.01558 26.2114 3.65804 26.4137 3.219C26.6161 3.65804 26.9647 4.01548 27.3929 4.22296C26.9648 4.43044 26.6161 4.78788 26.4137 5.22691Z" fill="#6A7889"/>
<path d="M4.82571 17.649C6.59729 17.2442 7.71738 15.4371 7.32258 13.6207C6.92779 11.8042 5.16534 10.6558 3.39376 11.0606C1.62217 11.4654 0.50209 13.2724 0.896882 15.0889C1.29167 16.9053 3.05412 18.0537 4.82571 17.649ZM3.84124 13.1194C4.5056 12.9676 5.1665 13.3983 5.31455 14.0795C5.4626 14.7607 5.04258 15.4383 4.37822 15.5901C3.71387 15.7419 3.05296 15.3112 2.90491 14.6301C2.75686 13.9489 3.17699 13.2712 3.84124 13.1194Z" fill="#6A7889"/>
<path d="M121.067 57.1262L93.2988 63.471L94.6558 59.0412C94.8261 58.4855 94.5247 57.8935 93.9827 57.719L86.1891 55.2091C85.9289 55.1253 85.647 55.151 85.4049 55.2803C85.163 55.4098 84.9812 55.6323 84.8995 55.8992L81.6883 66.3821C81.3121 66.0309 80.863 65.7646 80.3633 65.6037C78.4965 65.0025 76.5004 66.0706 75.9143 67.9848C75.6194 68.9474 75.7366 69.9433 76.163 70.7721C76.1579 70.7748 76.1526 70.7772 76.1475 70.7799C75.3072 71.2296 74.6879 71.9879 74.4039 72.9152C74.1198 73.8424 74.2049 74.8277 74.6435 75.6892C75.0821 76.5508 75.8218 77.1857 76.7262 77.477C77.2261 77.638 77.7431 77.6816 78.2476 77.614L75.0358 88.098C74.954 88.3649 74.979 88.6541 75.1053 88.902C75.2316 89.15 75.4486 89.3364 75.7089 89.4202L83.5025 91.9301C83.681 91.9876 83.8632 91.9926 84.0336 91.9537C84.3806 91.8744 84.6779 91.6127 84.7921 91.24L91.4849 69.3924L95.5801 88.2346C95.7037 88.8031 96.2533 89.1613 96.8078 89.0346L126.527 82.2442C127.081 82.1175 127.43 81.5539 127.307 80.9854L122.295 57.9262C122.171 57.3576 121.622 56.9995 121.067 57.1262V57.1262ZM86.5539 57.5375L92.3848 59.4153L88.8092 71.0874L82.9783 69.2096L86.5539 57.5375ZM87.3297 75.9172L81.4988 74.0394L82.3618 71.2219L88.1928 73.0997L87.3297 75.9172ZM77.8768 68.6168C78.0422 68.0769 78.4744 67.6972 78.9779 67.5822C79.2248 67.5257 79.4887 67.533 79.7468 67.616C80.5314 67.8687 80.9691 68.7287 80.7229 69.5332L80.2759 70.9924L78.8529 70.5341C78.0682 70.2814 77.6303 69.4213 77.8768 68.6168V68.6168ZM79.2123 74.4638C78.9659 75.2682 78.1272 75.7173 77.3423 75.4646C76.5577 75.2119 76.1199 74.3519 76.3663 73.5473C76.4858 73.1576 76.7459 72.8389 77.0992 72.6498C77.2171 72.5868 77.3407 72.5406 77.4671 72.5117C77.7193 72.4541 77.9831 72.465 78.2363 72.5465L79.6593 73.0048L79.2123 74.4638ZM83.1376 89.6017L77.3067 87.7239L80.8823 76.0518L86.7132 77.9296L83.1376 89.6017ZM92.8001 65.746L103.242 63.3602L107.806 84.3605L97.3644 86.7463L92.8001 65.746ZM125.075 80.4148L114.633 82.8006L113.42 77.2157C113.296 76.6472 112.746 76.289 112.192 76.4157C111.637 76.5424 111.288 77.106 111.411 77.6745L112.625 83.2594L109.814 83.9017L105.25 62.9014L108.061 62.259L109.398 68.4097C109.521 68.9782 110.071 69.3364 110.626 69.2097C111.18 69.083 111.529 68.5194 111.406 67.9509L110.069 61.8002L120.511 59.4144L125.075 80.4148Z" fill="#6A7889"/>
<path d="M105.491 57.2209C106.046 57.0942 106.395 56.5306 106.271 55.962L103.852 44.8322C103.729 44.2637 103.179 43.9055 102.625 44.0322C102.07 44.1589 101.721 44.7225 101.844 45.291L104.263 56.4209C104.387 56.9894 104.937 57.3476 105.491 57.2209Z" fill="#6A7889"/>
<path d="M111.585 55.8293C112.139 55.7026 112.488 55.139 112.365 54.5704C111.511 50.6411 112.2 46.606 114.306 43.2085C114.611 42.7169 114.469 42.065 113.99 41.7525C113.51 41.4401 112.875 41.5854 112.57 42.0769C110.169 45.9501 109.383 50.55 110.357 55.0292C110.48 55.5978 111.03 55.956 111.585 55.8293Z" fill="#6A7889"/>
<path d="M98.1695 57.8134C98.2931 58.382 98.8428 58.7401 99.3973 58.6134C99.9518 58.4867 100.301 57.9231 100.178 57.3546C99.204 52.8753 96.5875 49.0528 92.81 46.5914C92.3306 46.279 91.6948 46.4242 91.3901 46.9159C91.0854 47.4075 91.2271 48.0593 91.7067 48.3717C95.0202 50.5309 97.3155 53.8841 98.1695 57.8134Z" fill="#6A7889"/>
<path d="M86.4939 46.5534C88.2655 46.1486 89.3856 44.3415 88.9908 42.5251C88.596 40.7086 86.8336 39.5602 85.062 39.965C83.2904 40.3698 82.1703 42.1768 82.5651 43.9933C82.9599 45.8097 84.7223 46.9582 86.4939 46.5534ZM85.5095 42.0239C86.1738 41.8721 86.8347 42.3027 86.9828 42.9839C87.1308 43.6651 86.7108 44.3427 86.0464 44.4945C85.3821 44.6463 84.7212 44.2156 84.5731 43.5345C84.4251 42.8533 84.8452 42.1756 85.5095 42.0239Z" fill="#6A7889"/>
<path d="M95.5583 40.9475C95.8224 40.8872 96.0577 40.7189 96.2026 40.4837C96.3477 40.2495 96.3977 39.9604 96.3386 39.6887C96.2797 39.4179 96.1146 39.1769 95.8862 39.0281C95.6579 38.8793 95.3749 38.8283 95.1108 38.8886C94.8468 38.949 94.6116 39.1183 94.4655 39.3527C94.3204 39.5868 94.2717 39.8767 94.3306 40.1475C94.3894 40.4182 94.5535 40.6595 94.7819 40.8083C95.0114 40.9579 95.2933 41.0081 95.5583 40.9475Z" fill="#6A7889"/>
<path d="M116.383 50.8139C116.611 50.9627 116.894 51.0137 117.159 50.9534C117.423 50.893 117.658 50.7237 117.803 50.4895C117.949 50.2552 117.998 49.9653 117.939 49.6945C117.88 49.4238 117.716 49.1825 117.486 49.0339C117.258 48.8851 116.975 48.8342 116.711 48.8945C116.447 48.9548 116.212 49.1242 116.067 49.3583C115.922 49.5925 115.872 49.8826 115.931 50.1533C115.989 50.4241 116.155 50.6651 116.383 50.8139Z" fill="#6A7889"/>
<path d="M117.011 38.4592C117.275 38.3989 117.51 38.2296 117.655 37.9954C117.8 37.7613 117.85 37.4711 117.791 37.2004C117.732 36.9286 117.567 36.6886 117.338 36.5388C117.11 36.39 116.827 36.34 116.563 36.4004C116.299 36.4607 116.064 36.629 115.919 36.8631C115.774 37.0983 115.724 37.3874 115.783 37.6592C115.842 37.9299 116.007 38.171 116.235 38.3198C116.464 38.4686 116.746 38.5196 117.011 38.4592V38.4592Z" fill="#6A7889"/>
<path d="M111.185 71.7832C110.921 71.8435 110.686 72.0118 110.541 72.247C110.396 72.4811 110.346 72.7702 110.405 73.042C110.464 73.3127 110.629 73.5538 110.857 73.7026C111.086 73.8514 111.369 73.9024 111.633 73.842C111.897 73.7817 112.132 73.6124 112.277 73.3782C112.422 73.1441 112.472 72.8539 112.413 72.5832C112.354 72.3114 112.189 72.0714 111.961 71.9226C111.732 71.7728 111.449 71.7228 111.185 71.7832Z" fill="#6A7889"/>
<path d="M107.21 26.2729L105.733 26.1109C105.59 26.0952 105.46 26.0107 105.386 25.8849L104.615 24.5822C104.411 24.2374 104.016 24.0645 103.633 24.1522C103.249 24.24 102.962 24.5683 102.921 24.9694L102.763 26.484C102.747 26.6305 102.665 26.7634 102.542 26.8398L101.272 27.6296C100.935 27.8387 100.767 28.2437 100.852 28.6375C100.938 29.0311 101.258 29.3245 101.649 29.3674L103.127 29.5294C103.269 29.545 103.399 29.6296 103.474 29.7554L104.244 31.058C104.448 31.4028 104.843 31.5757 105.227 31.488C105.611 31.4003 105.897 31.0719 105.939 30.6708L106.097 29.1561C106.112 29.0098 106.194 28.8767 106.317 28.8005L107.588 28.0106C107.924 27.8015 108.093 27.3965 108.007 27.0028C107.921 26.609 107.601 26.3157 107.21 26.2729ZM104.635 28.765C104.355 28.3953 103.953 28.1339 103.508 28.0307C103.869 27.7434 104.124 27.3319 104.224 26.8752C104.505 27.2449 104.906 27.5064 105.351 27.6096C104.991 27.8969 104.736 28.3083 104.635 28.765Z" fill="#6A7889"/>
</svg>
